<svg width="142" height="139" viewBox="0 0 142 139" fill="none" xmlns="http://www.w3.org/2000/svg">
<g clip-path="url(#clip0_9_308)">
<path d="M116.855 139H25.1454C11.2407 139 0 127.715 0 113.755V25.2453C0 11.2854 11.2407 0 25.1454 0H116.855C130.759 0 142 11.2854 142 25.2453V113.755C142 127.715 130.759 139 116.855 139Z" fill="#FF26BE"/>
<path d="M114.605 133.058H27.3946C15.5632 133.058 5.91856 123.375 5.91856 111.497V27.5035C5.91856 15.625 15.5632 5.94208 27.3946 5.94208H114.549C126.442 5.94208 136.025 15.625 136.025 27.5035V111.44C136.081 123.375 126.437 133.058 114.605 133.058Z" fill="#2E001F"/>
<path d="M56.1468 65.0435L72.7154 97.0006C73.0107 97.4739 72.8346 97.9529 72.3575 97.9529H62.0597C61.4065 97.9529 61.1111 97.7762 60.8158 97.1831C57.0272 89.3421 53.1818 81.5011 49.2172 73.067H49.0979C45.5479 81.0277 41.6401 89.4048 37.8572 97.2458C37.5618 97.7191 37.2665 97.9016 36.7894 97.9016H27.0368C26.4461 97.9016 26.3836 97.4283 26.6846 97.0691L42.8954 66.0585L27.2186 34.6944C26.8607 34.2211 27.2186 33.8618 27.5707 33.8618H37.7493C38.34 33.8618 38.5786 33.9816 38.8114 34.5176C42.5375 42.3587 46.3261 50.4392 49.8761 58.3372H49.9954C53.4261 50.4962 57.2146 42.3587 60.8839 34.5747C61.1793 34.1013 61.3554 33.8048 61.9518 33.8048H71.4771C71.9486 33.8048 72.1303 34.1641 71.835 34.6374L56.1468 65.0435ZM75.6178 74.7264C75.6178 60.8863 84.791 50.0742 99.3432 50.0742C100.587 50.0742 101.235 50.0742 102.422 50.194V34.4549C102.422 34.0956 102.717 33.8618 103.012 33.8618H112.362C112.833 33.8618 112.952 34.0386 112.952 34.3351V88.8688C112.952 90.4712 112.952 92.4899 113.248 94.6911C113.248 95.0503 113.129 95.1644 112.776 95.3469C107.806 97.7248 102.598 98.7912 97.6278 98.7912C84.7854 98.8426 75.6122 90.8875 75.6178 74.7264ZM102.416 59.5234C101.587 59.1641 100.405 58.9303 98.9854 58.9303C91.5275 58.9303 86.3246 64.6899 86.3246 74.2588C86.3246 85.1906 91.6525 89.5873 98.3378 89.5873C99.7578 89.5873 101.297 89.4105 102.422 88.9315V59.5234H102.416Z" fill="#FFD9F2"/>
</g>
<defs>
<clipPath id="clip0_9_308">
<rect width="142" height="139" fill="white"/>
</clipPath>
</defs>
</svg>
