<svg width="140" height="140" viewBox="0 0 140 140" fill="none" xmlns="http://www.w3.org/2000/svg">
<path d="M57.8047 13.1797H15.3125C9.29688 13.1797 4.375 18.1016 4.375 24.1172V35.0547H84.2188L65.5156 16.4062C63.4922 14.3828 60.7031 13.1797 57.8047 13.1797Z" fill="#FF9A00"/>
<path d="M124.688 126.93H15.3125C9.29688 126.93 4.375 122.008 4.375 115.992V32.8672H124.688C130.703 32.8672 135.625 37.7891 135.625 43.8047V115.992C135.625 122.063 130.703 126.93 124.688 126.93Z" fill="#330000"/>
<path d="M91.2734 60.1562C89.9609 60.2109 88.7031 59.7187 87.7187 58.8437C85.914 56.7656 85.914 53.7031 87.7734 51.6797C88.7578 50.75 90.0156 50.2578 91.3281 50.3125C92.6406 50.2578 93.9531 50.75 94.8828 51.6797C95.8125 52.6641 96.25 53.9766 96.1953 55.2891C96.25 56.6016 95.7578 57.9141 94.8281 58.8437C93.8984 59.7187 92.6406 60.2109 91.2734 60.1562ZM69.5625 84.2187H55.289L51.625 95.7031C51.5703 96.0312 51.3515 96.25 50.9687 96.25H44.2422C43.8047 96.25 43.6406 96.0312 43.75 95.5937L56.8203 56.4375C57.2031 55.2891 57.3672 54.0859 57.3672 52.8828C57.3125 52.7187 57.4765 52.5 57.6406 52.5C57.6953 52.5 57.6953 52.5 57.75 52.5H66.9922C67.2656 52.5 67.4297 52.6094 67.4297 52.8281L81.9219 95.6484C82.0312 96.0312 81.9218 96.25 81.5937 96.25H74.1015C73.8281 96.25 73.5547 96.0859 73.4453 95.8672L69.5625 84.2187ZM56.9297 77.6562H68.0312L62.3437 59.0625L56.9297 77.6562ZM87.5 95.6484V63.9844C87.4453 63.7109 87.664 63.4922 87.8828 63.4375C87.9375 63.4375 87.9922 63.4375 88.0468 63.4375H94.6093C94.8828 63.3828 95.1015 63.6016 95.1562 63.8203C95.1562 63.875 95.1562 63.9297 95.1562 63.9844V95.7031C95.2109 95.9766 94.9922 96.1953 94.7734 96.25C94.7187 96.25 94.664 96.25 94.6093 96.25H88.1015C87.8281 96.3047 87.5 96.0859 87.5 95.7578C87.5 95.7031 87.5 95.7031 87.5 95.6484Z" fill="#FF9A00"/>
</svg>
