<svg width="50" height="50" viewBox="0 0 50 50" fill="none" xmlns="http://www.w3.org/2000/svg">
<path fill-rule="evenodd" clip-rule="evenodd" d="M15.0868 26.1637C14.7719 26.8176 14.4977 27.3703 14.2372 27.9301C12.9332 30.7336 11.8532 33.6148 11.2957 36.6672C10.9856 38.3648 10.8161 40.075 11.2594 41.7793C11.6403 43.2437 12.4329 43.9957 13.7887 44.0578C14.3821 44.0855 15.0028 43.9598 15.5805 43.7969C17.1102 43.3637 18.4411 42.527 19.7282 41.6207C20.0407 41.4004 20.3602 41.2629 20.75 41.4078C21.4407 41.6648 21.6907 42.5805 21.1082 43.0152C19.0063 44.5812 16.7817 45.9316 14.0579 46.0152C11.827 46.084 10.2122 44.8875 9.50044 42.7609C8.96919 41.1742 8.93794 39.5422 9.13286 37.9047C9.71176 33.0305 11.593 28.602 13.852 24.309C14.0461 23.9402 14.0579 23.6473 13.9204 23.2531C13.3563 21.6332 12.8317 19.9992 12.3165 18.3629C12.2188 18.0527 12.1188 17.9645 11.7821 18.0383C9.5688 18.525 7.38833 19.1191 5.42505 20.282C4.66684 20.7312 3.9395 21.2891 3.33325 21.9258C2.32505 22.9844 2.30591 24.1559 3.12973 25.3645C3.84848 26.4195 4.86137 27.141 5.93012 27.793C6.2645 27.9977 6.61723 28.1719 6.95395 28.3727C7.4434 28.6652 7.61098 29.2324 7.35981 29.7043C7.10786 30.1766 6.54262 30.3637 6.02934 30.0996C4.52778 29.3277 3.12739 28.4117 2.00434 27.1266C1.31606 26.3391 0.811765 25.4539 0.644968 24.4047C0.437155 23.0961 0.812155 21.943 1.59809 20.907C2.40864 19.8395 3.47309 19.0777 4.6352 18.4449C6.69614 17.3227 8.91684 16.6523 11.1981 16.1582C11.3543 16.1242 11.509 16.082 11.7207 16.0293C11.6133 15.4207 11.4981 14.8301 11.4059 14.2352C11.0321 11.8156 10.8598 9.39414 11.454 6.98242C11.6891 6.02851 12.0582 5.12695 12.7004 4.36719C14.0114 2.81758 15.6973 2.47265 17.5879 2.93437C19.4567 3.39101 21.0258 4.42578 22.4891 5.63008C22.9032 5.9707 22.9145 6.58594 22.5766 6.98242C22.2317 7.38672 21.6954 7.43945 21.2258 7.11953C20.4883 6.61758 19.7711 6.08125 19.0047 5.62773C18.1266 5.10859 17.1836 4.74023 16.1329 4.73515C15.2649 4.73086 14.5903 5.08398 14.0957 5.78711C13.4692 6.6789 13.2454 7.70781 13.127 8.76289C12.8766 10.9945 13.1739 13.1883 13.6086 15.3715C13.6551 15.6035 13.7442 15.6855 13.9883 15.6609C15.75 15.4852 17.5122 15.3098 19.2766 15.1625C19.6602 15.1309 19.9106 14.9922 20.1485 14.6914C22.4415 11.7949 24.9551 9.11289 27.9122 6.875C29.5594 5.62851 31.3 4.5418 33.3028 3.94844C34.5575 3.57695 35.8274 3.43945 37.0911 3.88359C38.6692 4.43828 39.5512 5.6375 40.0059 7.18515C40.4879 8.82812 40.4125 10.5031 40.2168 12.1777C40.1664 12.6066 40.0914 13.0336 40.0106 13.4578C39.9008 14.0352 39.4727 14.341 38.8961 14.2738C38.3719 14.2129 38.0297 13.7914 38.0848 13.2062C38.161 12.3992 38.345 11.5965 38.3532 10.791C38.3629 9.83789 38.3426 8.86015 38.1442 7.93437C37.7305 6.00937 36.3989 5.25429 34.4289 5.68867C32.9512 6.01406 31.6407 6.70937 30.393 7.53164C27.8301 9.2207 25.6422 11.3328 23.611 13.6164C23.2332 14.041 22.87 14.4789 22.5028 14.9125C22.4805 14.9383 22.4821 14.9844 22.454 15.0941H22.9856C28.2165 15.1469 33.3704 15.7687 38.4071 17.2184C40.8055 17.909 43.1207 18.809 45.2512 20.1344C46.3848 20.8395 47.4254 21.6555 48.2485 22.7203C49.927 24.8922 49.786 27.3305 47.8551 29.2754C46.5512 30.5891 44.9454 31.4187 43.2348 32.0633C42.7508 32.2449 42.218 31.9781 42.0329 31.5145C41.8293 31.0051 42.05 30.4781 42.568 30.2269C43.3579 29.8441 44.1793 29.5125 44.9262 29.0578C45.5426 28.682 46.1301 28.2164 46.6243 27.691C47.67 26.5781 47.7086 25.3617 46.8219 24.1164C46.1579 23.1836 45.2657 22.5016 44.3063 21.9055C41.9391 20.4344 39.3414 19.523 36.6668 18.8117C33.8786 18.0699 31.0457 17.5523 28.1688 17.3477C25.8762 17.1848 23.5754 17.1379 21.2786 17.0289C20.9469 17.0129 20.7204 17.1109 20.536 17.3953C19.1895 19.4719 17.8278 21.5387 16.4883 23.6199C16.3907 23.7715 16.3493 24.0441 16.4161 24.2047C18.6836 29.6008 21.5555 34.6375 25.3614 39.109C26.9637 40.9906 28.7063 42.7309 30.8223 44.0477C31.8153 44.6652 32.8516 45.1805 34.0536 45.2605C35.1426 45.334 35.9372 44.8781 36.4778 43.9539C36.9872 43.0832 37.1914 42.1199 37.2829 41.1301C37.5782 37.9359 36.9465 34.8551 36.109 31.8059C35.2512 28.6824 34.0372 25.691 32.6461 22.7684C32.534 22.5332 32.4422 22.2539 32.4543 22.0008C32.4766 21.5402 32.8399 21.2125 33.2942 21.1414C33.6934 21.0789 34.1137 21.2984 34.3133 21.7266C34.811 22.7922 35.3161 23.8559 35.7719 24.9398C37.1789 28.2879 38.3118 31.723 38.9102 35.316C39.3278 37.8238 39.5274 40.3406 38.9477 42.8527C38.8176 43.4145 38.6258 43.9727 38.3856 44.4973C37.3985 46.6551 35.3969 47.6301 33.0778 47.123C31.1922 46.7102 29.6008 45.725 28.1161 44.548C25.3852 42.3836 23.1696 39.7445 21.1657 36.9172C18.8813 33.6965 16.952 30.2715 15.3356 26.6695C15.275 26.5355 15.2055 26.4055 15.0868 26.1637V26.1637ZM14.0993 17.5895L15.3477 21.5598C16.334 20.0543 17.2536 18.6512 18.2426 17.1406L14.0993 17.5895ZM25.1829 27.8387C23.6137 27.8367 22.3368 26.5648 22.3399 25.007C22.3426 23.4242 23.618 22.1629 25.2133 22.1633C26.7813 22.1641 28.0555 23.4348 28.0567 24.9973C28.0575 26.5781 26.7805 27.8406 25.1829 27.8387Z" fill="black"/>
</svg>
