<svg width="31" height="31" viewBox="0 0 31 31" fill="none" xmlns="http://www.w3.org/2000/svg">
<path d="M16.4688 12.5938H18.4062L17.4375 8.71875H19.375L20.3438 12.5938V16.4688H16.4688V12.5938ZM10.6562 12.5938H12.5938L11.625 8.71875H13.5625L14.5312 12.5938V16.4688H10.6562V12.5938Z" fill="black"/>
<mask id="path-2-inside-1_27_658" fill="white">
<path d="M23.0937 2.90625C25.8552 2.90625 28.0938 5.14483 28.0938 7.90625V20.2102C28.0938 21.5363 27.567 22.808 26.6293 23.7457L23.7457 26.6293C22.808 27.567 21.5363 28.0938 20.2102 28.0938H7.90625C5.14483 28.0938 2.90625 25.8552 2.90625 23.0937V7.90625C2.90625 5.14483 5.14483 2.90625 7.90625 2.90625H23.0937ZM3.875 22.125C3.875 24.8864 6.11358 27.125 8.875 27.125H18.4062C20.0113 27.125 21.3125 25.8238 21.3125 24.2188V24.2188C21.3125 22.6137 22.6137 21.3125 24.2188 21.3125V21.3125C25.8238 21.3125 27.125 20.0113 27.125 18.4062V8.875C27.125 6.11358 24.8864 3.875 22.125 3.875H8.875C6.11358 3.875 3.875 6.11358 3.875 8.875V22.125Z"/>
</mask>
<path d="M23.0937 2.90625C25.8552 2.90625 28.0938 5.14483 28.0938 7.90625V20.2102C28.0938 21.5363 27.567 22.808 26.6293 23.7457L23.7457 26.6293C22.808 27.567 21.5363 28.0938 20.2102 28.0938H7.90625C5.14483 28.0938 2.90625 25.8552 2.90625 23.0937V7.90625C2.90625 5.14483 5.14483 2.90625 7.90625 2.90625H23.0937ZM3.875 22.125C3.875 24.8864 6.11358 27.125 8.875 27.125H18.4062C20.0113 27.125 21.3125 25.8238 21.3125 24.2188V24.2188C21.3125 22.6137 22.6137 21.3125 24.2188 21.3125V21.3125C25.8238 21.3125 27.125 20.0113 27.125 18.4062V8.875C27.125 6.11358 24.8864 3.875 22.125 3.875H8.875C6.11358 3.875 3.875 6.11358 3.875 8.875V22.125Z" fill="black"/>
<path d="M26.6293 23.7457L30.1648 27.2813L26.6293 23.7457ZM33.0938 7.90625V20.2102H23.0938V7.90625H33.0938ZM30.1648 27.2813L27.2812 30.1648L20.2102 23.0938L23.0937 20.2102L30.1648 27.2813ZM20.2102 33.0938H7.90625V23.0938H20.2102V33.0938ZM-2.09375 23.0937V7.90625H7.90625V23.0937H-2.09375ZM7.90625 -2.09375H23.0937V7.90625H7.90625V-2.09375ZM8.875 22.125H18.4062V32.125H8.875V22.125ZM22.125 18.4062V8.875H32.125V18.4062H22.125ZM22.125 8.875H8.875V-1.125H22.125V8.875ZM8.875 8.875V22.125H-1.125V8.875H8.875ZM8.875 8.875L8.875 8.875H-1.125C-1.125 3.35215 3.35215 -1.125 8.875 -1.125V8.875ZM22.125 8.875L22.125 8.875V-1.125C27.6478 -1.125 32.125 3.35215 32.125 8.875H22.125ZM24.2188 16.3125C23.0624 16.3125 22.125 17.2499 22.125 18.4062H32.125C32.125 22.7728 28.5853 26.3125 24.2188 26.3125V16.3125ZM16.3125 24.2188C16.3125 19.8522 19.8522 16.3125 24.2188 16.3125V26.3125C25.3751 26.3125 26.3125 25.3751 26.3125 24.2188H16.3125ZM18.4062 22.125C17.2499 22.125 16.3125 23.0624 16.3125 24.2188H26.3125C26.3125 28.5853 22.7728 32.125 18.4062 32.125V22.125ZM8.875 32.125C3.35215 32.125 -1.125 27.6478 -1.125 22.125H8.875L8.875 22.125V32.125ZM-2.09375 7.90625C-2.09375 2.3834 2.3834 -2.09375 7.90625 -2.09375V7.90625L7.90625 7.90625H-2.09375ZM7.90625 33.0938C2.3834 33.0938 -2.09375 28.6166 -2.09375 23.0937H7.90625L7.90625 23.0938V33.0938ZM27.2812 30.1648C25.4059 32.0402 22.8623 33.0938 20.2102 33.0938V23.0938L20.2102 23.0938L27.2812 30.1648ZM33.0938 20.2102C33.0938 22.8623 32.0402 25.4059 30.1648 27.2813L23.0937 20.2102L23.0938 20.2102H33.0938ZM23.0938 7.90625L23.0937 7.90625V-2.09375C28.6166 -2.09375 33.0938 2.3834 33.0938 7.90625H23.0938Z" fill="black" mask="url(#path-2-inside-1_27_658)"/>
</svg>
