<svg width="36" height="37" viewBox="0 0 36 37" fill="none" xmlns="http://www.w3.org/2000/svg">
<mask id="path-1-inside-1_27_655" fill="white">
<path d="M13.2 4.93335C8.55665 4.93335 4.80005 8.7943 4.80005 13.5667V23.4333C4.80005 28.2057 8.55665 32.0667 13.2 32.0667H22.8C27.4434 32.0667 31.2 28.2057 31.2 23.4333V13.5667C31.2 8.7943 27.4434 4.93335 22.8 4.93335H13.2ZM13.2 6.16668H22.2V30.8333H13.2C9.20105 30.8333 6.00005 27.5434 6.00005 23.4333V13.5667C6.00005 9.4566 9.20105 6.16668 13.2 6.16668ZM23.4 6.19752C27.114 6.50893 30 9.66503 30 13.5667V14.1833H23.4V6.19752ZM23.4 15.4167H30V21.5833H23.4V15.4167ZM23.4 22.8167H30V23.4333C30.007 25.2907 29.3308 27.0821 28.1068 28.4486C26.8828 29.8151 25.2016 30.6557 23.4 30.8019V22.8161V22.8167Z"/>
</mask>
<path d="M13.2 4.93335C8.55665 4.93335 4.80005 8.7943 4.80005 13.5667V23.4333C4.80005 28.2057 8.55665 32.0667 13.2 32.0667H22.8C27.4434 32.0667 31.2 28.2057 31.2 23.4333V13.5667C31.2 8.7943 27.4434 4.93335 22.8 4.93335H13.2ZM13.2 6.16668H22.2V30.8333H13.2C9.20105 30.8333 6.00005 27.5434 6.00005 23.4333V13.5667C6.00005 9.4566 9.20105 6.16668 13.2 6.16668ZM23.4 6.19752C27.114 6.50893 30 9.66503 30 13.5667V14.1833H23.4V6.19752ZM23.4 15.4167H30V21.5833H23.4V15.4167ZM23.4 22.8167H30V23.4333C30.007 25.2907 29.3308 27.0821 28.1068 28.4486C26.8828 29.8151 25.2016 30.6557 23.4 30.8019V22.8161V22.8167Z" fill="black"/>
<path d="M22.2 6.16668H51.2V-22.8333H22.2V6.16668ZM22.2 30.8333V59.8333H51.2V30.8333H22.2ZM23.4 6.19752L25.8232 -22.7011L-5.59995 -25.3359V6.19752H23.4ZM30 14.1833V43.1833H59V14.1833H30ZM23.4 14.1833H-5.59995V43.1833H23.4V14.1833ZM23.4 15.4167V-13.5833H-5.59995V15.4167H23.4ZM30 15.4167H59V-13.5833H30V15.4167ZM30 21.5833V50.5833H59V21.5833H30ZM23.4 21.5833H-5.59995V50.5833H23.4V21.5833ZM23.4 22.8167H-5.59995V51.8167H23.4V22.8167ZM30 22.8167H59V-6.18332H30V22.8167ZM30 23.4333H1.00005V23.4878L1.00025 23.5422L30 23.4333ZM23.4 30.8019H-5.59995V62.2508L25.7459 59.7069L23.4 30.8019ZM13.2 -24.0667C-8.20349 -24.0667 -24.2 -6.46782 -24.2 13.5667H33.8C33.8 24.0564 25.3168 33.9333 13.2 33.9333V-24.0667ZM-24.2 13.5667V23.4333H33.8V13.5667H-24.2ZM-24.2 23.4333C-24.2 43.4678 -8.20349 61.0667 13.2 61.0667V3.06668C25.3168 3.06668 33.8 12.9436 33.8 23.4333H-24.2ZM13.2 61.0667H22.8V3.06668H13.2V61.0667ZM22.8 61.0667C44.2036 61.0667 60.2 43.4678 60.2 23.4333H2.20005C2.20005 12.9436 10.6833 3.06668 22.8 3.06668V61.0667ZM60.2 23.4333V13.5667H2.20005V23.4333H60.2ZM60.2 13.5667C60.2 -6.46782 44.2036 -24.0667 22.8 -24.0667V33.9333C10.6833 33.9333 2.20005 24.0564 2.20005 13.5667H60.2ZM22.8 -24.0667H13.2V33.9333H22.8V-24.0667ZM13.2 35.1667H22.2V-22.8333H13.2V35.1667ZM-6.79995 6.16668V30.8333H51.2V6.16668H-6.79995ZM22.2 1.83335H13.2V59.8333H22.2V1.83335ZM13.2 1.83335C25.9612 1.83335 35 12.2813 35 23.4333H-23C-23 42.8055 -7.55909 59.8333 13.2 59.8333V1.83335ZM35 23.4333V13.5667H-23V23.4333H35ZM35 13.5667C35 24.7187 25.9612 35.1667 13.2 35.1667V-22.8333C-7.55909 -22.8333 -23 -5.80552 -23 13.5667H35ZM20.9769 35.0961C9.14301 34.1038 1.00005 24.2105 1.00005 13.5667H59C59 -4.88044 45.0851 -21.086 25.8232 -22.7011L20.9769 35.0961ZM1.00005 13.5667V14.1833H59V13.5667H1.00005ZM30 -14.8167H23.4V43.1833H30V-14.8167ZM52.4 14.1833V6.19752H-5.59995V14.1833H52.4ZM23.4 44.4167H30V-13.5833H23.4V44.4167ZM1.00005 15.4167V21.5833H59V15.4167H1.00005ZM30 -7.41665H23.4V50.5833H30V-7.41665ZM52.4 21.5833V15.4167H-5.59995V21.5833H52.4ZM23.4 51.8167H30V-6.18332H23.4V51.8167ZM1.00005 22.8167V23.4333H59V22.8167H1.00005ZM1.00025 23.5422C0.980656 18.3206 2.87443 13.1535 6.50512 9.10003L49.7085 47.7972C55.7871 41.0107 59.0334 32.2608 58.9998 23.3245L1.00025 23.5422ZM6.50512 9.10003C10.1559 5.02407 15.3275 2.36171 21.0542 1.89694L25.7459 59.7069C35.0757 58.9497 43.6097 54.6061 49.7085 47.7972L6.50512 9.10003ZM52.4 30.8019V22.8161H-5.59995V30.8019H52.4ZM-5.59995 22.8161V22.8167H52.4V22.8161H-5.59995Z" fill="black" mask="url(#path-1-inside-1_27_655)"/>
<mask id="path-3-inside-2_27_655" fill="white">
<path d="M14.4 12.95C12.4188 12.95 10.8 14.6137 10.8 16.65C10.8002 17.1349 10.8935 17.615 11.0745 18.0628C11.2555 18.5106 11.5206 18.9173 11.8548 19.2597C10.5036 20.1341 9.59998 21.677 9.59998 23.4333C9.59998 23.5968 9.66319 23.7537 9.77571 23.8693C9.88823 23.985 10.0408 24.05 10.2 24.05C10.3591 24.05 10.5117 23.985 10.6242 23.8693C10.7368 23.7537 10.8 23.5968 10.8 23.4333C10.7993 22.7118 11.0047 22.006 11.3909 21.4035C11.777 20.801 12.3268 20.3283 12.972 20.0441C13.4225 20.2464 13.9089 20.3509 14.4006 20.3509C14.8923 20.3509 15.3786 20.2464 15.8292 20.0441C17.106 20.6114 18 21.9064 18 23.4333C18 23.5968 18.0632 23.7537 18.1757 23.8693C18.2882 23.985 18.4408 24.05 18.6 24.05C18.7591 24.05 18.9117 23.985 19.0242 23.8693C19.1368 23.7537 19.2 23.5968 19.2 23.4333C19.2 21.677 18.2964 20.1341 16.9452 19.2597C17.2793 18.9173 17.5445 18.5106 17.7255 18.0628C17.9065 17.615 17.9997 17.1349 18 16.65C18 14.6137 16.3812 12.95 14.4 12.95ZM14.4 14.1833C15.7326 14.1833 16.8 15.2803 16.8 16.65C16.8 18.0196 15.7326 19.1166 14.4 19.1166C13.0674 19.1166 12 18.0196 12 16.65C12 15.2803 13.0674 14.1833 14.4 14.1833Z"/>
</mask>
<path d="M14.4 12.95C12.4188 12.95 10.8 14.6137 10.8 16.65C10.8002 17.1349 10.8935 17.615 11.0745 18.0628C11.2555 18.5106 11.5206 18.9173 11.8548 19.2597C10.5036 20.1341 9.59998 21.677 9.59998 23.4333C9.59998 23.5968 9.66319 23.7537 9.77571 23.8693C9.88823 23.985 10.0408 24.05 10.2 24.05C10.3591 24.05 10.5117 23.985 10.6242 23.8693C10.7368 23.7537 10.8 23.5968 10.8 23.4333C10.7993 22.7118 11.0047 22.006 11.3909 21.4035C11.777 20.801 12.3268 20.3283 12.972 20.0441C13.4225 20.2464 13.9089 20.3509 14.4006 20.3509C14.8923 20.3509 15.3786 20.2464 15.8292 20.0441C17.106 20.6114 18 21.9064 18 23.4333C18 23.5968 18.0632 23.7537 18.1757 23.8693C18.2882 23.985 18.4408 24.05 18.6 24.05C18.7591 24.05 18.9117 23.985 19.0242 23.8693C19.1368 23.7537 19.2 23.5968 19.2 23.4333C19.2 21.677 18.2964 20.1341 16.9452 19.2597C17.2793 18.9173 17.5445 18.5106 17.7255 18.0628C17.9065 17.615 17.9997 17.1349 18 16.65C18 14.6137 16.3812 12.95 14.4 12.95ZM14.4 14.1833C15.7326 14.1833 16.8 15.2803 16.8 16.65C16.8 18.0196 15.7326 19.1166 14.4 19.1166C13.0674 19.1166 12 18.0196 12 16.65C12 15.2803 13.0674 14.1833 14.4 14.1833Z" fill="black"/>
<path d="M10.8 16.65L2.79997 16.65L2.79998 16.6538L10.8 16.65ZM11.8548 19.2597L16.2012 25.976L24.4061 20.6662L17.58 13.672L11.8548 19.2597ZM10.8 23.4333L18.8 23.4333L18.8 23.4255L10.8 23.4333ZM12.972 20.0441L16.2497 12.7464L13.0036 11.2884L9.74699 12.7229L12.972 20.0441ZM15.8292 20.0441L19.0776 12.7333L15.8116 11.2821L12.5515 12.7464L15.8292 20.0441ZM16.9452 19.2597L11.2199 13.672L4.3939 20.6662L12.5987 25.976L16.9452 19.2597ZM18 16.65L26 16.6538V16.65L18 16.65ZM14.4 4.94995C7.79529 4.94995 2.79998 10.4035 2.79998 16.65H18.8C18.8 18.824 17.0423 20.95 14.4 20.95V4.94995ZM2.79998 16.6538C2.80071 18.1607 3.09034 19.6576 3.65742 21.0606L18.4916 15.065C18.6967 15.5724 18.7997 16.109 18.8 16.6461L2.79998 16.6538ZM3.65742 21.0606C4.22463 22.464 5.06116 23.7526 6.12954 24.8473L17.58 13.672C17.9801 14.082 18.2864 14.5572 18.4916 15.065L3.65742 21.0606ZM7.50832 12.5434C3.94625 14.8486 1.59998 18.8844 1.59998 23.4333H17.6C17.6 24.4696 17.0609 25.4196 16.2012 25.976L7.50832 12.5434ZM1.59998 23.4333C1.59998 25.6489 2.45427 27.8164 4.0419 29.4482L15.5095 18.2905C16.8721 19.6909 17.6 21.5448 17.6 23.4333H1.59998ZM4.0419 29.4482C5.63678 31.0874 7.84731 32.05 10.2 32.05V16.05C12.2344 16.05 14.1397 16.8826 15.5095 18.2905L4.0419 29.4482ZM10.2 32.05C12.5526 32.05 14.7632 31.0874 16.358 29.4482L4.89043 18.2905C6.26027 16.8826 8.16557 16.05 10.2 16.05V32.05ZM16.358 29.4482C17.9457 27.8164 18.8 25.6489 18.8 23.4333H2.79998C2.79998 21.5448 3.52784 19.6909 4.89043 18.2905L16.358 29.4482ZM18.8 23.4255C18.8008 24.2235 18.5745 25.0209 18.1264 25.72L4.65532 17.087C3.43499 18.9912 2.79779 21.2001 2.79998 23.4411L18.8 23.4255ZM18.1264 25.72C17.6769 26.4214 17.0149 27.005 16.197 27.3652L9.74699 12.7229C7.63869 13.6516 5.87704 15.1806 4.65532 17.087L18.1264 25.72ZM9.69426 27.3418C11.1707 28.0049 12.7737 28.3509 14.4006 28.3509V12.3509C15.044 12.3509 15.6743 12.4879 16.2497 12.7464L9.69426 27.3418ZM14.4006 28.3509C16.0274 28.3509 17.6304 28.0049 19.1069 27.3418L12.5515 12.7464C13.1268 12.4879 13.7571 12.3509 14.4006 12.3509V28.3509ZM12.5807 27.3549C11.0037 26.6541 9.99998 25.1069 9.99998 23.4333H26C26 18.7059 23.2082 14.5687 19.0776 12.7333L12.5807 27.3549ZM9.99998 23.4333C9.99998 25.6489 10.8543 27.8164 12.4419 29.4482L23.9095 18.2905C25.2721 19.6909 26 21.5448 26 23.4333H9.99998ZM12.4419 29.4482C14.0368 31.0874 16.2473 32.05 18.6 32.05V16.05C20.6344 16.05 22.5397 16.8826 23.9095 18.2905L12.4419 29.4482ZM18.6 32.05C20.9526 32.05 23.1632 31.0874 24.758 29.4482L13.2904 18.2905C14.6603 16.8826 16.5656 16.05 18.6 16.05V32.05ZM24.758 29.4482C26.3457 27.8164 27.2 25.6489 27.2 23.4333H11.2C11.2 21.5448 11.9278 19.6909 13.2904 18.2905L24.758 29.4482ZM27.2 23.4333C27.2 18.8844 24.8537 14.8486 21.2916 12.5434L12.5987 25.976C11.739 25.4196 11.2 24.4696 11.2 23.4333H27.2ZM22.6704 24.8473C23.7388 23.7526 24.5753 22.464 25.1425 21.0606L10.3084 15.065C10.5136 14.5572 10.8198 14.082 11.2199 13.672L22.6704 24.8473ZM25.1425 21.0606C25.7096 19.6576 25.9992 18.1607 26 16.6538L9.99998 16.6461C10.0002 16.109 10.1033 15.5724 10.3084 15.065L25.1425 21.0606ZM26 16.65C26 10.4035 21.0047 4.94995 14.4 4.94995V20.95C11.7577 20.95 9.99998 18.824 9.99998 16.65L26 16.65ZM14.4 22.1833C11.1091 22.1833 8.79998 19.4906 8.79998 16.65H24.8C24.8 11.0701 20.3561 6.18328 14.4 6.18328V22.1833ZM8.79998 16.65C8.79998 13.8093 11.1091 11.1166 14.4 11.1166V27.1166C20.3561 27.1166 24.8 22.2298 24.8 16.65H8.79998ZM14.4 11.1166C17.6909 11.1166 20 13.8093 20 16.65H3.99998C3.99998 22.2298 8.44389 27.1166 14.4 27.1166V11.1166ZM20 16.65C20 19.4906 17.6909 22.1833 14.4 22.1833V6.18328C8.44389 6.18328 3.99998 11.0701 3.99998 16.65H20Z" fill="black" mask="url(#path-3-inside-2_27_655)"/>
</svg>
