<svg width="147" height="147" viewBox="0 0 147 147" fill="none" xmlns="http://www.w3.org/2000/svg">
<path d="M132.53 35.257L77.0601 3.33046C76.1414 2.75624 74.8781 2.52655 73.5 2.52655C72.1219 2.52655 70.8586 2.87108 69.9398 3.33046L14.8148 35.3719C12.8625 36.5203 11.4844 39.3914 11.4844 41.5734V105.541C11.4844 106.805 11.7141 108.298 12.6328 109.561L135.286 38.3578C134.597 36.9797 133.563 35.9461 132.53 35.257V35.257Z" fill="#9B4F96"/>
<path d="M12.2883 109.446C12.8625 110.365 13.6664 111.169 14.4703 111.628L69.825 143.67C70.7437 144.244 72.007 144.473 73.3851 144.473C74.7633 144.473 76.0265 144.129 76.9453 143.67L132.07 111.628C134.023 110.48 135.401 107.609 135.401 105.427V41.4586C135.401 40.425 135.286 39.2766 134.712 38.243L12.2883 109.446V109.446Z" fill="#68217A"/>
<path d="M97.9617 87.3961C93.1383 95.8945 83.9508 101.637 73.5 101.637C57.9961 101.637 45.3633 89.0039 45.3633 73.5C45.3633 57.9961 57.9961 45.3633 73.5 45.3633C83.9508 45.3633 93.1383 51.1055 97.9617 59.7188L112.891 51.1055C105.082 37.4391 90.382 28.1367 73.5 28.1367C48.4641 28.1367 28.1367 48.4641 28.1367 73.5C28.1367 98.5359 48.4641 118.863 73.5 118.863C90.2672 118.863 104.967 109.676 112.777 96.1242L97.9617 87.3961V87.3961ZM111.398 76.0266L112.432 71.0883H107.609V65.6906H113.466L114.844 58.5703H120.471L119.093 65.5758H123.457L124.835 58.5703H130.348L128.97 65.5758H131.726V70.9734H127.936L126.902 75.9117H131.726V81.3094H125.869L124.491 88.2H118.863L120.241 81.3094H115.877L114.499 88.2H108.987L110.365 81.3094H107.609V75.9117H111.398V76.0266ZM116.911 76.0266H121.275L122.309 71.0883H117.945L116.911 76.0266Z" fill="white"/>
</svg>
