<svg width="140" height="141" viewBox="0 0 140 141" fill="none" xmlns="http://www.w3.org/2000/svg">
<path d="M20.5778 125.322L9.58124 1.97876H130.419L119.411 125.303L69.9267 139.022L20.5778 125.322V125.322Z" fill="#1572B6"/>
<path d="M70.0011 128.537L109.988 117.45L119.395 12.0631H70.0011V128.537Z" fill="#33A9DC"/>
<path d="M70.0011 56.7505H90.0189L91.4014 41.2597H70.0011V26.132H107.935L107.571 30.1909L103.853 71.8781H70.0011V56.7505V56.7505Z" fill="white"/>
<path d="M70.0908 96.038L70.0241 96.0577L53.177 91.5088L52.0997 79.4436H36.9163L39.0349 103.197L70.0219 111.797L70.0908 111.777V96.038V96.038Z" fill="#EBEBEB"/>
<path d="M88.7326 71.2383L86.9105 91.4967L70.0383 96.0511V111.79L101.05 103.195L101.278 100.639L103.91 71.2383H88.7326Z" fill="white"/>
<path d="M70.0525 26.132V41.2597H33.5125L33.2095 37.8603L32.5205 30.1909L32.1584 26.132H70.0525V26.132ZM70.0011 56.7526V71.8803H53.3663L53.0633 68.4809L52.3731 60.8115L52.0122 56.7526H70.0011V56.7526Z" fill="#EBEBEB"/>
</svg>
