<svg width="140" height="140" viewBox="0 0 140 140" fill="none" xmlns="http://www.w3.org/2000/svg">
<g clip-path="url(#clip0_1_82)">
<path d="M46.6667 140C59.5467 140 70 129.547 70 116.667V93.3333H46.6667C33.7867 93.3333 23.3334 103.787 23.3334 116.667C23.3334 129.547 33.7867 140 46.6667 140Z" fill="#0ACF83"/>
<path d="M23.3334 70C23.3334 57.12 33.7867 46.6667 46.6667 46.6667H70V93.3333H46.6667C33.7867 93.3333 23.3334 82.88 23.3334 70Z" fill="#A259FF"/>
<path d="M23.3334 23.3333C23.3334 10.4533 33.7867 0 46.6667 0H70V46.6667H46.6667C33.7867 46.6667 23.3334 36.2133 23.3334 23.3333Z" fill="#F24E1E"/>
<path d="M49.1109 93.3333H46.6667C33.7867 93.3333 23.3334 103.787 23.3334 116.667C23.3334 129.547 33.7867 140 46.6667 140C47.495 140 48.3059 139.959 49.1109 139.872V93.3333Z" fill="#09B472"/>
<path d="M49.1109 46.6667H46.6667C33.7867 46.6667 23.3334 57.12 23.3334 70C23.3334 82.88 33.7867 93.3333 46.6667 93.3333H49.1109V46.6667Z" fill="#8D4DDE"/>
<path d="M49.1109 0H46.6667C33.7867 0 23.3334 10.4533 23.3334 23.3333C23.3334 36.2133 33.7867 46.6667 46.6667 46.6667H49.1109V0Z" fill="#D3441A"/>
<path d="M70 0H93.3333C106.213 0 116.667 10.4533 116.667 23.3333C116.667 36.2133 106.213 46.6667 93.3333 46.6667H70V0Z" fill="#FF7262"/>
<path d="M116.667 70C116.667 82.88 106.213 93.3333 93.3333 93.3333C80.4533 93.3333 70 82.88 70 70C70 57.12 80.4533 46.6667 93.3333 46.6667C106.213 46.6667 116.667 57.12 116.667 70Z" fill="#1ABCFE"/>
<path d="M93.3333 0H70V46.6667H93.3333V0Z" fill="#DE6355"/>
<path d="M93.3333 46.6667C80.4533 46.6667 70 57.12 70 70C70 82.88 80.4533 93.3333 93.3333 93.3333V46.6667Z" fill="#17A4DD"/>
</g>
<defs>
<clipPath id="clip0_1_82">
<rect width="140" height="140" fill="white"/>
</clipPath>
</defs>
</svg>
