<svg width="30" height="31" viewBox="0 0 30 31" fill="none" xmlns="http://www.w3.org/2000/svg">
<path d="M25 10.4999L17.5 3.92489C16.8125 3.30994 15.9224 2.96997 15 2.96997C14.0776 2.96997 13.1875 3.30994 12.5 3.92489L5 10.4999C4.60296 10.855 4.28612 11.2906 4.07059 11.7777C3.85505 12.2648 3.74576 12.7922 3.75 13.3249V24.2499C3.75 25.2444 4.14508 26.1983 4.84835 26.9015C5.55161 27.6048 6.50543 27.9999 7.5 27.9999H22.5C23.4946 27.9999 24.4484 27.6048 25.1516 26.9015C25.8549 26.1983 26.25 25.2444 26.25 24.2499V13.3124C26.2525 12.7818 26.1423 12.2568 25.9268 11.772C25.7114 11.2872 25.3954 10.8536 25 10.4999V10.4999ZM17.5 25.4999H12.5V19.2499C12.5 18.9184 12.6317 18.6004 12.8661 18.366C13.1005 18.1316 13.4185 17.9999 13.75 17.9999H16.25C16.5815 17.9999 16.8995 18.1316 17.1339 18.366C17.3683 18.6004 17.5 18.9184 17.5 19.2499V25.4999ZM23.75 24.2499C23.75 24.5814 23.6183 24.8994 23.3839 25.1338C23.1495 25.3682 22.8315 25.4999 22.5 25.4999H20V19.2499C20 18.2553 19.6049 17.3015 18.9016 16.5982C18.1984 15.895 17.2446 15.4999 16.25 15.4999H13.75C12.7554 15.4999 11.8016 15.895 11.0983 16.5982C10.3951 17.3015 10 18.2553 10 19.2499V25.4999H7.5C7.16848 25.4999 6.85053 25.3682 6.61611 25.1338C6.38169 24.8994 6.25 24.5814 6.25 24.2499V13.3124C6.25022 13.1349 6.28824 12.9595 6.36152 12.7979C6.4348 12.6362 6.54166 12.492 6.675 12.3749L14.175 5.81239C14.4031 5.61199 14.6964 5.50147 15 5.50147C15.3036 5.50147 15.5969 5.61199 15.825 5.81239L23.325 12.3749C23.4583 12.492 23.5652 12.6362 23.6385 12.7979C23.7118 12.9595 23.7498 13.1349 23.75 13.3124V24.2499Z" fill="black"/>
</svg>
