<svg width="140" height="140" viewBox="0 0 140 140" fill="none" xmlns="http://www.w3.org/2000/svg">
<path d="M19.4141 125.781L8.20312 0H131.523L120.312 125.781L69.7266 140" fill="#E34F26"/>
<path d="M70 129.062L110.742 117.852L120.312 10.1172H70" fill="#EF652A"/>
<path d="M70 56.875H49.4922L48.125 41.0156H70V25.7031H31.1719L35.2734 72.4609H70V56.875ZM69.7266 97.0703L52.5 92.4219L51.4062 80.1172H36.0938L38.0078 104.453L69.7266 113.203V97.0703Z" fill="#EBEBEB"/>
<path d="M69.7266 56.875V72.4609H88.8672L86.9531 92.4219L69.7266 97.0703V113.203L101.445 104.453L105.82 56.875H69.7266ZM69.7266 25.7031V41.0156H107.188L108.555 25.7031H69.7266Z" fill="white"/>
</svg>
