<svg width="136" height="135" viewBox="0 0 136 135" fill="none" xmlns="http://www.w3.org/2000/svg">
<g clip-path="url(#clip0_9_293)">
<path d="M135.96 0H0.0398438C0.0178387 0 0 0.0177075 0 0.0395508V134.96C0 134.982 0.0178387 135 0.0398438 135H135.96C135.982 135 136 134.982 136 134.96V0.0395508C136 0.0177075 135.982 0 135.96 0Z" fill="#F7DF1E"/>
<path d="M86.0625 97.5586C88.7188 102.041 92.4375 105.205 98.5469 105.205C103.859 105.205 107.312 102.568 107.312 98.877C107.312 94.6582 103.859 93.0762 98.0156 90.4395L94.8281 89.1211C85.5312 85.166 79.4219 80.4199 79.4219 70.1367C79.4219 60.6445 86.5938 53.2617 98.0156 53.2617C106.25 53.2617 112.094 56.1621 116.078 63.5449L106.25 69.873C104.125 65.918 101.734 64.3359 98.0156 64.3359C94.2969 64.3359 91.9062 66.709 91.9062 69.873C91.9062 73.5645 94.2969 75.1465 99.875 77.5195L103.062 78.8379C113.953 83.584 120.062 88.0664 120.062 98.877C120.062 110.215 111.031 116.543 98.8125 116.543C86.8594 116.543 79.1562 111.006 75.4375 103.623L86.0625 97.5586ZM40.9062 98.6133C43.0312 102.041 44.625 105.205 49.1406 105.205C53.3906 105.205 56.0469 103.623 56.0469 97.2949V53.5254H68.7969V96.7676C68.7969 109.951 61.0938 115.752 49.6719 115.752C39.3125 115.752 33.4688 110.479 30.5469 104.15L40.9062 98.6133Z" fill="black"/>
</g>
<defs>
<clipPath id="clip0_9_293">
<rect width="136" height="135" fill="white"/>
</clipPath>
</defs>
</svg>
