<svg width="36" height="37" viewBox="0 0 36 37" fill="none" xmlns="http://www.w3.org/2000/svg">
<g clip-path="url(#clip0_5_264)">
<path d="M0 11.3756H7.86076V36.4019H0V11.3756ZM29.2724 11.6691C29.1889 11.6418 29.1098 11.6122 29.022 11.5872C28.9165 11.5625 28.8102 11.5412 28.7034 11.5235C28.2393 11.4252 27.7667 11.3757 27.293 11.3756C22.7101 11.3756 19.8035 14.827 18.8456 16.1602V11.3756H10.9848V36.4019H18.8456V22.7512C18.8456 22.7512 24.7862 14.1831 27.293 20.4761V36.4019H35.1515V19.5137C35.1483 17.7167 34.5693 15.9716 33.5053 14.5519C32.4414 13.1323 30.9526 12.1184 29.2724 11.6691Z" fill="#FE481C"/>
<path d="M3.8447 7.96291C5.96806 7.96291 7.68939 6.18036 7.68939 3.98146C7.68939 1.78256 5.96806 0 3.8447 0C1.72133 0 0 1.78256 0 3.98146C0 6.18036 1.72133 7.96291 3.8447 7.96291Z" fill="#FE481C"/>
</g>
<defs>
<clipPath id="clip0_5_264">
<rect width="35.1515" height="36.4019" fill="white"/>
</clipPath>
</defs>
</svg>
