<svg width="140" height="140" viewBox="0 0 140 140" fill="none" xmlns="http://www.w3.org/2000/svg">
<path d="M112.656 6.5625H27.3438C14.6585 6.5625 4.375 16.846 4.375 29.5312V110.469C4.375 123.154 14.6585 133.438 27.3438 133.438H112.656C125.342 133.438 135.625 123.154 135.625 110.469V29.5312C135.625 16.846 125.342 6.5625 112.656 6.5625Z" fill="#001E36"/>
<path d="M31.7188 100.013V40.4688C31.708 40.3858 31.7165 40.3014 31.7435 40.2222C31.7704 40.143 31.8152 40.0711 31.8744 40.0119C31.9336 39.9527 32.0055 39.9079 32.0847 39.881C32.1639 39.854 32.2483 39.8455 32.3312 39.8562C36.7664 39.7414 42 39.375 48.825 39.375C56.875 39.375 62.7813 41.0539 66.5438 44.6688C68.3716 46.379 69.8188 48.4549 70.7912 50.7615C71.7636 53.0681 72.2393 55.5536 72.1875 58.0563C72.1875 64.6516 69.8542 69.5516 65.1875 72.7562C60.5208 75.9609 54.651 77.5651 47.5781 77.5687L42.6562 77.6562V99.925C42.67 100.02 42.6614 100.117 42.631 100.208C42.6007 100.3 42.5496 100.382 42.4816 100.45C42.4136 100.518 42.3308 100.569 42.2396 100.6C42.1484 100.63 42.0514 100.639 41.9563 100.625H32.4187C31.9539 100.625 31.7188 100.423 31.7188 100.013ZM42.6562 47.9172V69.4531C42.6562 69.4531 45.15 69.3547 48.125 69.3547C52.037 69.3547 55.2016 68.4943 57.6188 66.7734C60.0359 65.0526 61.2464 62.2344 61.25 58.3187C61.25 54.8771 60.1854 52.2229 58.0563 50.3563C55.9271 48.4896 52.85 47.5635 48.825 47.5781C47.8352 47.5781 46.8562 47.5781 45.8937 47.6219C44.9312 47.6656 44.1437 47.6656 43.5312 47.6656C42.9187 47.6656 42.5906 47.6438 42.6562 47.9172ZM108.281 86.4062C108.281 93.1055 103.906 96.25 103.906 96.25V96.2172C103.644 96.4742 103.359 96.7148 103.08 96.95C100.069 99.4 95.9984 100.625 90.8688 100.625C85.7391 100.625 81.5464 99.6807 78.2906 97.7922C78.1106 97.7296 77.9578 97.6066 77.8581 97.4441C77.7584 97.2816 77.718 97.0897 77.7438 96.9008V88.6594C77.7356 88.5663 77.7514 88.4727 77.7897 88.3875C77.828 88.3023 77.8875 88.2283 77.9625 88.1727C78.0219 88.1298 78.095 88.1106 78.1678 88.1187C78.2406 88.1268 78.3077 88.1616 78.3563 88.2164C81.8268 90.9435 86.1051 92.4401 90.5188 92.4711C92.5568 92.4711 94.1172 92.1065 95.2 91.3773C95.6992 91.0797 96.1127 90.6577 96.4002 90.1526C96.6878 89.6475 96.8395 89.0765 96.8406 88.4953C96.8524 87.9087 96.7417 87.3262 96.5157 86.7848C96.2897 86.2433 95.9534 85.755 95.5281 85.3508C94.6531 84.4904 92.9323 83.5589 90.3656 82.5563C85.6953 80.7333 82.4432 78.7682 80.6094 76.6609C78.6684 74.5495 77.6114 71.7739 77.6563 68.9062C77.6573 67.1223 78.0406 65.3592 78.7801 63.7358C79.5197 62.1123 80.5984 60.6661 81.9438 59.4945C84.6818 57.0117 88.5901 55.7703 93.6688 55.7703C98.4083 55.7703 102.054 56.4211 104.606 57.7227C104.896 57.8977 105.044 58.2695 105.044 58.8711V66.2266C105.044 66.9375 104.781 67.1125 104.256 66.7734C101.214 64.7747 97.6588 63.6979 94.0188 63.6727C91.9734 63.6727 90.475 64.0609 89.5125 64.8266C89.0745 65.1374 88.7157 65.5468 88.4649 66.0218C88.2141 66.4967 88.0784 67.0239 88.0687 67.5609C88.0671 68.0864 88.1753 68.6063 88.3862 69.0875C88.5971 69.5688 88.9063 70.0006 89.2938 70.3555C90.1104 71.1539 91.8313 72.0836 94.4563 73.1445C99.0354 74.9346 102.317 76.8159 104.3 78.7883L104.349 78.8375C106.389 80.7133 108.281 83.2945 108.281 86.4062Z" fill="#31A8FF"/>
</svg>
