<svg width="141" height="137" viewBox="0 0 141 137" fill="none" xmlns="http://www.w3.org/2000/svg">
<path d="M71.235 83.6419C78.2488 83.6419 83.9347 77.9561 83.9347 70.9423C83.9347 63.9285 78.2488 58.2427 71.235 58.2427C64.2212 58.2427 58.5354 63.9285 58.5354 70.9423C58.5354 77.9561 64.2212 83.6419 71.235 83.6419Z" fill="#61DAFB"/>
<path d="M119.471 49.999C117.02 49.1078 114.458 48.2166 111.785 47.4368C112.453 44.7632 113.01 42.0896 113.456 39.5274C115.795 24.8226 113.233 14.4624 106.103 10.452C103.987 9.22656 101.647 8.66956 98.9736 8.66956C91.1756 8.66956 81.261 14.4624 71.235 24.1542C61.209 14.4624 51.2943 8.66956 43.4963 8.66956C40.8227 8.66956 38.4833 9.22656 36.3667 10.452C29.2371 14.5738 26.6749 24.934 29.0143 39.5274C29.4599 42.0896 30.0169 44.7632 30.6853 47.4368C28.0117 48.2166 25.4495 48.9964 22.9987 49.999C9.07366 55.3462 1.49844 62.6987 1.49844 70.9423C1.49844 79.1859 9.18506 86.5383 22.9987 91.8855C25.4495 92.7767 28.0117 93.6679 30.6853 94.4477C30.0169 97.1213 29.4599 99.7949 29.0143 102.357C26.6749 117.062 29.2371 127.422 36.3667 131.433C38.4833 132.658 40.8227 133.215 43.4963 133.215C51.4057 133.215 61.3204 127.422 71.235 117.73C81.261 127.422 91.1756 133.215 98.9736 133.215C101.647 133.215 103.987 132.658 106.103 131.433C113.233 127.311 115.795 116.951 113.456 102.357C113.01 99.7949 112.453 97.1213 111.785 94.4477C114.458 93.6679 117.02 92.8881 119.471 91.8855C133.396 86.5383 140.972 79.1859 140.972 70.9423C140.972 62.6987 133.396 55.3462 119.471 49.999ZM102.984 16.022C107.551 18.6956 109.111 26.9392 107.217 38.6362C106.883 40.9756 106.326 43.4264 105.658 45.9886C99.8649 44.6518 93.7378 43.7606 87.2766 43.2036C83.489 37.8564 79.59 33.0662 75.691 28.7216C83.9346 20.5894 92.2896 15.0194 99.085 15.0194C100.533 15.0194 101.87 15.3536 102.984 16.022V16.022ZM90.5072 82.0823C88.502 85.6471 86.1626 89.2119 83.7118 92.7767C79.59 93.1109 75.4682 93.2223 71.235 93.2223C66.8904 93.2223 62.7686 93.1109 58.7582 92.7767C56.3074 89.2119 54.0794 85.6471 52.0741 82.0823C49.9575 78.4061 47.9523 74.6185 46.1699 70.9423C47.9523 67.2661 49.9575 63.4785 52.0741 59.8023C54.0794 56.2375 56.4188 52.6726 58.8696 49.1078C62.9914 48.7736 67.1132 48.6622 71.3464 48.6622C75.691 48.6622 79.8128 48.7736 83.8232 49.1078C86.274 52.6726 88.502 56.2375 90.5072 59.8023C92.6238 63.4785 94.629 67.2661 96.4114 70.9423C94.5176 74.6185 92.6238 78.2947 90.5072 82.0823ZM99.7534 78.4061C101.424 82.3051 102.761 86.0927 103.987 89.8803C100.199 90.7715 96.1886 91.4399 91.9554 91.9969C93.2922 89.8803 94.7404 87.6523 95.9658 85.3129C97.3026 82.9735 98.528 80.6341 99.7534 78.4061ZM71.235 108.596C68.5614 105.699 65.9992 102.58 63.5484 99.3493C66.1106 99.4607 68.6728 99.5721 71.235 99.5721C73.7972 99.5721 76.3594 99.4607 78.9216 99.3493C76.4708 102.58 73.9086 105.699 71.235 108.596ZM50.5145 91.8855C46.2813 91.3285 42.2709 90.6601 38.4833 89.7689C39.7087 86.0927 41.0455 82.1937 42.7165 78.2947C43.9419 80.5227 45.1673 82.8621 46.5041 85.0901C47.8409 87.5409 49.1777 89.6575 50.5145 91.8855V91.8855ZM42.7165 63.4785C41.0455 59.5795 39.7087 55.7919 38.4833 52.0042C42.2709 51.113 46.2813 50.4446 50.5145 49.8876C49.1777 52.0042 47.7295 54.2322 46.5041 56.5717C45.1673 58.9111 43.9419 61.2505 42.7165 63.4785V63.4785ZM71.235 33.289C73.9086 36.1854 76.4708 39.3046 78.9216 42.5352C76.3594 42.4238 73.7972 42.3124 71.235 42.3124C68.6728 42.3124 66.1106 42.4238 63.5484 42.5352C65.9992 39.3046 68.5614 36.1854 71.235 33.289V33.289ZM95.9658 56.683L91.9554 49.999C96.1886 50.556 100.199 51.2244 103.987 52.1156C102.761 55.7918 101.424 59.6909 99.7534 63.5899C98.528 61.2505 97.3026 58.9111 95.9658 56.683V56.683ZM35.2527 38.6362C33.3589 26.9392 34.9185 18.6956 39.4859 16.022C40.5999 15.3536 41.9367 15.0194 43.3849 15.0194C50.0689 15.0194 58.424 20.478 66.779 28.7216C62.88 32.9548 58.981 37.8564 55.1934 43.2036C48.7321 43.7606 42.6051 44.7632 36.8123 45.9886C36.1439 43.4264 35.6983 40.9756 35.2527 38.6362ZM7.73686 70.9423C7.73686 65.7065 14.0867 60.1365 25.2267 56.0147C27.4547 55.1234 29.9055 54.3436 32.3563 53.6752C34.1387 59.2453 36.3667 65.1495 39.0403 71.0537C36.3667 76.9579 34.0273 82.7507 32.3563 88.3207C16.9831 83.8647 7.73686 77.1807 7.73686 70.9423V70.9423ZM39.4859 125.863C34.9185 123.189 33.3589 114.945 35.2527 103.248C35.5869 100.909 36.1439 98.4581 36.8123 95.8959C42.6051 97.2327 48.7321 98.1239 55.1934 98.6809C58.981 104.028 62.88 108.818 66.779 113.163C58.5354 121.295 50.1803 126.865 43.3849 126.865C41.9367 126.865 40.5999 126.531 39.4859 125.863ZM107.217 103.248C109.111 114.945 107.551 123.189 102.984 125.863C101.87 126.531 100.533 126.865 99.085 126.865C92.401 126.865 84.046 121.407 75.691 113.163C79.59 108.93 83.489 104.028 87.2766 98.6809C93.7378 98.1239 99.8649 97.1213 105.658 95.8959C106.326 98.4581 106.772 100.909 107.217 103.248V103.248ZM117.243 85.8699C115.015 86.7611 112.564 87.5409 110.114 88.2093C108.331 82.6393 106.103 76.7351 103.43 70.8309C106.103 64.9267 108.443 59.1339 110.114 53.5638C125.487 58.0199 134.733 64.7039 134.733 70.9423C134.733 76.1781 128.272 81.7481 117.243 85.8699V85.8699Z" fill="#61DAFB"/>
</svg>
