<svg width="39" height="36" viewBox="0 0 39 36" fill="none" xmlns="http://www.w3.org/2000/svg">
<g clip-path="url(#clip0_5_262)">
<path d="M38.8303 4.49444C37.2105 5.20424 35.4974 5.67597 33.7438 5.8951C35.5918 4.79358 36.9736 3.04934 37.6273 0.992786C35.8969 2.02391 34.0036 2.75004 32.0294 3.13975C30.819 1.84124 29.2479 0.938487 27.5202 0.548778C25.7924 0.159068 23.988 0.300415 22.3413 0.954455C20.6945 1.60849 19.2817 2.74499 18.2862 4.2163C17.2907 5.6876 16.7586 7.4257 16.7591 9.20477C16.7591 9.90781 16.8183 10.5838 16.9636 11.2274C13.4517 11.0544 10.0157 10.1386 6.88016 8.53991C3.74466 6.94124 0.980299 4.69566 -1.23219 1.95C-2.36571 3.90189 -2.71614 6.21447 -2.21213 8.41684C-1.70813 10.6192 -0.387574 12.5458 1.48063 13.8042C0.0831963 13.7666 -1.28474 13.3919 -2.50786 12.7118V12.8092C-2.50552 14.8573 -1.80095 16.842 -0.512763 18.4293C0.775426 20.0166 2.56858 21.1095 4.56484 21.5241C3.80963 21.7241 3.03131 21.8223 2.25033 21.8161C1.68944 21.8262 1.12911 21.7754 0.579045 21.6647C1.14944 23.4251 2.24896 24.9645 3.72622 26.071C5.20348 27.1775 6.98582 27.7967 8.82784 27.8433C5.70309 30.2986 1.84926 31.6306 -2.11762 31.6262C-2.84158 31.6262 -3.53593 31.5937 -4.23029 31.5045C-0.193671 34.118 4.51014 35.5005 9.31227 35.4848C25.5569 35.4848 34.4381 21.9649 34.4381 10.2458C34.4381 9.85373 34.4247 9.47517 34.4058 9.09932C36.147 7.84734 37.6464 6.28686 38.8303 4.49444Z" fill="#FE481C"/>
</g>
<defs>
<clipPath id="clip0_5_262">
<rect width="38.6667" height="35.1515" fill="white" transform="translate(0.163635 0.333374)"/>
</clipPath>
</defs>
</svg>
