<svg width="30" height="31" viewBox="0 0 30 31" fill="none" xmlns="http://www.w3.org/2000/svg">
<path d="M25.6534 7.31939H21.3755C20.2709 7.31939 19.3755 6.42396 19.3755 5.31939V4.39807C19.3755 2.82267 18.2705 1.72217 16.6109 1.72217H13.22C11.5063 1.72217 10.625 2.84721 10.625 4.39764V5.31939C10.625 6.42396 9.72961 7.31939 8.62504 7.31939H4.34671C3.58071 7.3195 2.84611 7.63399 2.30447 8.19369C1.76283 8.75339 1.45848 9.51247 1.45837 10.304V26.2931C1.45848 27.0847 1.76281 27.8438 2.30444 28.4036C2.84608 28.9633 3.58067 29.2779 4.34671 29.2782H25.6534C26.4194 29.278 27.1541 28.9635 27.6958 28.4037C28.2374 27.8439 28.5417 27.0847 28.5417 26.2931L28.5421 10.304C28.542 9.51239 28.2376 8.75325 27.6959 8.19354C27.1541 7.63383 26.4194 7.31939 25.6534 7.31939ZM12.2917 4.39807C12.2917 3.47151 13.0875 3.44439 13.2196 3.44439H16.193C16.7192 3.44439 17.7084 3.60972 17.7084 4.39764V5.31939C17.7084 6.42396 16.8129 7.31939 15.7084 7.31939H14.2917C13.1871 7.31939 12.2917 6.42396 12.2917 5.31939V4.39807ZM25.6534 27.5555H4.34671C4.0227 27.5555 3.71197 27.4225 3.48286 27.1858C3.25375 26.949 3.12504 26.6279 3.12504 26.2931V19.818C3.12504 19.0977 3.70894 18.5138 4.42921 18.5138V18.5138C4.53971 18.5138 4.6457 18.4685 4.72384 18.3877C4.80198 18.307 4.84587 18.1975 4.84587 18.0833C4.84587 17.9691 4.80198 17.8596 4.72384 17.7788C4.6457 17.6981 4.53971 17.6527 4.42921 17.6527V17.6527C3.70894 17.6527 3.12504 17.0688 3.12504 16.3486V10.304C3.12504 9.96919 3.25375 9.6481 3.48286 9.41136C3.71197 9.17461 4.0227 9.04161 4.34671 9.04161H25.6534C25.9774 9.04161 26.2881 9.17461 26.5172 9.41136C26.7463 9.6481 26.875 9.96919 26.875 10.304L26.8753 15.6526C26.8754 16.7572 25.98 17.6527 24.8753 17.6527H18.1084C17.8872 17.6527 17.708 17.4734 17.708 17.2523V17.2523C17.708 16.7877 17.5293 16.3421 17.2114 16.0135C16.8934 15.685 16.4622 15.5004 16.0125 15.5004H13.9875C13.7649 15.5003 13.5444 15.5456 13.3386 15.6336C13.1329 15.7216 12.9459 15.8507 12.7884 16.0134C12.631 16.176 12.506 16.3692 12.4208 16.5818C12.3356 16.7944 12.2917 17.0222 12.2917 17.2523V17.2523C12.2917 17.4734 12.1124 17.6527 11.8913 17.6527H6.92962C6.81912 17.6527 6.71314 17.6981 6.635 17.7788C6.55686 17.8596 6.51296 17.9691 6.51296 18.0833C6.51296 18.1975 6.55686 18.307 6.635 18.3877C6.71314 18.4685 6.81912 18.5138 6.92962 18.5138H11.4607C11.9197 18.5138 12.2917 18.8859 12.2917 19.3448V19.3448C12.2917 19.8096 12.4704 20.2553 12.7884 20.5839C13.1064 20.9125 13.5378 21.0972 13.9875 21.0972H16.0125C16.4623 21.0972 16.8936 20.9125 17.2117 20.5839C17.5297 20.2553 17.7084 19.8096 17.7084 19.3448V19.3448C17.7081 18.8859 18.0801 18.5138 18.5389 18.5138H24.8755C25.98 18.5138 26.8755 19.4093 26.8755 20.5138V26.2931C26.8755 26.4589 26.8438 26.6231 26.7824 26.7763C26.721 26.9295 26.631 27.0687 26.5175 27.1859C26.404 27.3031 26.2693 27.3961 26.121 27.4595C25.9727 27.5229 25.8138 27.5556 25.6534 27.5555ZM16.875 17.2523L16.8746 19.3444C16.8746 19.5807 16.7838 19.8073 16.6222 19.9744C16.4605 20.1416 16.2412 20.2355 16.0125 20.2356H13.9875C13.7588 20.2356 13.5394 20.1417 13.3777 19.9746C13.2159 19.8074 13.125 19.5807 13.125 19.3444V17.2523C13.125 16.7602 13.5109 16.3615 13.9875 16.3615H16.0125C16.4888 16.3615 16.875 16.7597 16.875 17.2523Z" fill="black"/>
</svg>
